<svg width="300" height="300" viewBox="0 0 300 300" fill="none" xmlns="http://www.w3.org/2000/svg">
<path d="M21.3059 129.234C21.3059 129.234 16.3319 177.234 51.7859 217.038C87.2399 256.842 142.074 270.168 186.306 282.144C230.538 294.12 268.278 275.718 278.67 238.524C289.062 201.33 256.47 183.264 243.918 136.032C231.366 88.8001 234.954 74.8261 199.446 40.2001C163.938 5.57412 100.446 9.71412 62.0459 49.1221C23.6459 88.5301 21.3059 129.234 21.3059 129.234Z" fill="#4C72FF"/>
<path opacity="0.7" d="M21.3059 129.234C21.3059 129.234 16.3319 177.234 51.7859 217.038C87.2399 256.842 142.074 270.168 186.306 282.144C230.538 294.12 268.278 275.718 278.67 238.524C289.062 201.33 256.47 183.264 243.918 136.032C231.366 88.8001 234.954 74.8261 199.446 40.2001C163.938 5.57412 100.446 9.71412 62.0459 49.1221C23.6459 88.5301 21.3059 129.234 21.3059 129.234Z" fill="#B3AAFA"/>
<path d="M197.826 51.354H101.796C96.9845 51.354 93.084 55.2545 93.084 60.066V264.042C93.084 268.854 96.9845 272.754 101.796 272.754H197.826C202.637 272.754 206.538 268.854 206.538 264.042V60.066C206.538 55.2545 202.637 51.354 197.826 51.354Z" fill="#263238"/>
<mask id="mask0_280_872" style="mask-type:luminance" maskUnits="userSpaceOnUse" x="93" y="51" width="114" height="222">
<path d="M197.826 51.354H101.796C96.9845 51.354 93.084 55.2545 93.084 60.066V264.042C93.084 268.854 96.9845 272.754 101.796 272.754H197.826C202.637 272.754 206.538 268.854 206.538 264.042V60.066C206.538 55.2545 202.637 51.354 197.826 51.354Z" fill="white"/>
</mask>
<g mask="url(#mask0_280_872)">
<path opacity="0.2" d="M102.858 51.354C100.266 51.354 97.7797 52.3838 95.9467 54.2167C94.1137 56.0497 93.084 58.5358 93.084 61.128V262.974C93.0824 264.405 93.3955 265.818 94.0011 267.114C94.6066 268.41 95.4898 269.557 96.588 270.474L162.78 51.354H102.858Z" fill="white"/>
<path d="M153.66 266.346C153.66 265.583 153.434 264.837 153.009 264.202C152.585 263.567 151.982 263.073 151.277 262.781C150.572 262.489 149.796 262.413 149.047 262.563C148.299 262.712 147.611 263.08 147.072 263.62C146.533 264.16 146.166 264.848 146.017 265.597C145.869 266.346 145.947 267.122 146.239 267.827C146.532 268.531 147.028 269.134 147.663 269.557C148.298 269.98 149.045 270.205 149.808 270.204C150.314 270.204 150.816 270.104 151.284 269.91C151.751 269.716 152.176 269.432 152.534 269.074C152.892 268.715 153.175 268.29 153.369 267.822C153.562 267.354 153.661 266.852 153.66 266.346Z" stroke="white" stroke-linecap="round" stroke-linejoin="round"/>
</g>
<path d="M197.826 51.354H101.796C96.9845 51.354 93.084 55.2545 93.084 60.066V264.042C93.084 268.854 96.9845 272.754 101.796 272.754H197.826C202.637 272.754 206.538 268.854 206.538 264.042V60.066C206.538 55.2545 202.637 51.354 197.826 51.354Z" stroke="#263238" stroke-linecap="round" stroke-linejoin="round"/>
<path d="M201.486 66.3899H98.124V259.614H201.486V66.3899Z" fill="#4C72FF" stroke="#263238" stroke-linecap="round" stroke-linejoin="round"/>
<path d="M148.182 220.506C174.357 220.506 195.576 199.287 195.576 173.112C195.576 146.937 174.357 125.718 148.182 125.718C122.007 125.718 100.788 146.937 100.788 173.112C100.788 199.287 122.007 220.506 148.182 220.506Z" fill="#263238"/>
<path d="M198.33 89.5801H101.7V111.582H198.33V89.5801Z" fill="white"/>
<path d="M198.33 234.042H101.7V256.044H198.33V234.042Z" fill="white"/>
<path d="M198.33 226.392H101.7V227.346H198.33V226.392Z" fill="white"/>
<path d="M198.33 230.694H101.7V231.648H198.33V230.694Z" fill="white"/>
<path d="M197.97 68.394H189.402V73.092H197.97V68.394Z" stroke="#263238" stroke-width="0.821067" stroke-linecap="round" stroke-linejoin="round"/>
<path d="M196.086 68.394H189.402V73.092H196.086V68.394Z" fill="#263238" stroke="#263238" stroke-width="0.725073" stroke-linecap="round" stroke-linejoin="round"/>
<path d="M199.158 69.708H197.952V71.778H199.158V69.708Z" fill="#263238" stroke="#263238" stroke-width="0.725073" stroke-linecap="round" stroke-linejoin="round"/>
<path d="M102.024 69.8521H100.452V72.5461H102.024V69.8521Z" fill="#263238" stroke="#263238" stroke-width="0.883086" stroke-linecap="round" stroke-linejoin="round"/>
<path d="M104.496 68.9041H102.924V72.5461H104.496V68.9041Z" fill="#263238" stroke="#263238" stroke-width="0.883086" stroke-linecap="round" stroke-linejoin="round"/>
<path d="M106.962 67.7881H105.39V72.5461H106.962V67.7881Z" fill="#263238" stroke="#263238" stroke-width="0.883086" stroke-linecap="round" stroke-linejoin="round"/>
<path d="M199.044 75.7019H99.792V83.1659H199.044V75.7019Z" fill="#263238"/>
<mask id="mask1_280_872" style="mask-type:luminance" maskUnits="userSpaceOnUse" x="102" y="91" width="162" height="128">
<path d="M263.202 91.9619H142.386V127.8C134.9 128.76 127.769 131.559 121.629 135.948C115.49 140.337 110.533 146.179 107.202 152.951C103.872 159.724 102.271 167.215 102.542 174.758C102.814 182.3 104.95 189.657 108.759 196.172C112.569 202.687 117.933 208.157 124.373 212.093C130.812 216.029 138.126 218.308 145.662 218.726C153.197 219.145 160.719 217.691 167.555 214.493C174.391 211.295 180.328 206.453 184.836 200.4H263.202V91.9619Z" fill="white"/>
</mask>
<g mask="url(#mask1_280_872)">
<path d="M98.4001 217.8C98.4001 217.8 111.048 173.76 113.436 164.346C115.824 154.932 119.436 148.806 126.888 147.312C134.34 145.818 148.098 144.432 148.098 144.432C148.098 144.432 160.056 143.232 168.72 143.832C177.384 144.432 185.31 149.064 189.492 152.232C193.674 155.4 205.782 166.278 205.782 166.278L204.288 141.174L215.196 142.068C215.196 142.068 223.116 177.036 224.16 183.468C225.204 189.9 225.21 192.738 224.16 193.482C223.11 194.226 224.91 194.682 215.346 191.538C205.782 188.394 194.574 184.068 188.448 182.274C182.322 180.48 181.572 180.18 181.572 180.18C181.572 180.18 166.572 202.752 161.802 209.478C158.528 214.254 155.616 219.268 153.09 224.478" fill="white"/>
<mask id="mask2_280_872" style="mask-type:luminance" maskUnits="userSpaceOnUse" x="98" y="141" width="127" height="84">
<path d="M98.4001 217.8C98.4001 217.8 111.048 173.76 113.436 164.346C115.824 154.932 119.436 148.806 126.888 147.312C134.34 145.818 148.098 144.432 148.098 144.432C148.098 144.432 160.056 143.232 168.72 143.832C177.384 144.432 185.31 149.064 189.492 152.232C193.674 155.4 205.782 166.278 205.782 166.278L204.288 141.174L215.196 142.068C215.196 142.068 223.116 177.036 224.16 183.468C225.204 189.9 225.21 192.738 224.16 193.482C223.11 194.226 224.91 194.682 215.346 191.538C205.782 188.394 194.574 184.068 188.448 182.274C182.322 180.48 181.572 180.18 181.572 180.18C181.572 180.18 166.572 202.752 161.802 209.478C158.528 214.254 155.616 219.268 153.09 224.478" fill="white"/>
</mask>
<g mask="url(#mask2_280_872)">
<path opacity="0.2" d="M224.142 193.434C225.192 192.69 225.192 189.834 224.142 183.42C223.542 179.586 220.452 165.6 218.076 154.932C219.018 167.532 219.384 179.844 217.476 182.142C213.276 187.11 207.138 180.582 207.138 180.582L205.968 170.898C205.968 170.898 185.052 155.472 177.204 152.856C169.356 150.24 161.004 149.718 152.886 152.334C144.768 154.95 137.982 157.566 133.014 162.534C128.046 167.502 110.814 207.246 110.814 207.246L108.864 219.048L153.072 224.4C155.598 219.19 158.51 214.176 161.784 209.4C166.584 202.674 181.554 180.102 181.554 180.102C181.554 180.102 182.304 180.402 188.43 182.196C194.556 183.99 205.764 188.322 215.328 191.46C224.892 194.598 223.098 194.184 224.142 193.434Z" fill="black"/>
</g>
<path d="M98.4001 217.8C98.4001 217.8 111.048 173.76 113.436 164.346C115.824 154.932 119.436 148.806 126.888 147.312C134.34 145.818 148.098 144.432 148.098 144.432C148.098 144.432 160.056 143.232 168.72 143.832C177.384 144.432 185.31 149.064 189.492 152.232C193.674 155.4 205.782 166.278 205.782 166.278L204.288 141.174L215.196 142.068C215.196 142.068 223.116 177.036 224.16 183.468C225.204 189.9 225.21 192.738 224.16 193.482C223.11 194.226 224.91 194.682 215.346 191.538C205.782 188.394 194.574 184.068 188.448 182.274C182.322 180.48 181.572 180.18 181.572 180.18C181.572 180.18 166.572 202.752 161.802 209.478C158.528 214.254 155.616 219.268 153.09 224.478" stroke="#263238" stroke-linecap="round" stroke-linejoin="round"/>
<path d="M185.82 173.202L181.554 180.138L194.178 173.202" stroke="#263238" stroke-linecap="round" stroke-linejoin="round"/>
<path d="M205.764 166.236C205.764 166.236 206.364 178.638 207.108 180.582C207.852 182.526 211.146 183.42 211.146 183.42" fill="white"/>
<path d="M205.764 166.236C205.764 166.236 206.364 178.638 207.108 180.582C207.852 182.526 211.146 183.42 211.146 183.42" stroke="#263238" stroke-linecap="round" stroke-linejoin="round"/>
<path d="M139.914 165.858C139.914 165.858 138.282 169.728 139.098 169.728C139.914 169.728 145.212 167.694 147.66 167.694C150.108 167.694 152.754 171.972 152.754 171.972C152.754 171.972 159.888 166.674 162.132 167.286C163.231 167.654 164.239 168.251 165.09 169.038C165.232 169.161 165.406 169.242 165.592 169.271C165.777 169.3 165.968 169.276 166.14 169.201C166.313 169.127 166.461 169.004 166.567 168.849C166.673 168.694 166.733 168.512 166.74 168.324C166.782 167.226 166.818 165.726 166.818 163.818C166.818 159.336 162.948 147.108 155.814 146.496C148.68 145.884 147.456 150.978 144.414 157.092C141.372 163.206 139.914 165.858 139.914 165.858Z" fill="#263238"/>
<path d="M155.256 139.488C155.256 139.488 148.38 140.4 145.242 143.4C142.104 146.4 143.148 151.17 141.504 155.502C139.86 159.834 137.022 168.654 138.504 168.504C139.986 168.354 145.23 164.172 146.724 165.216C148.218 166.26 151.656 170.616 152.256 170.892C152.856 171.168 160.476 165.666 161.52 165.066C162.564 164.466 167.646 171.066 167.796 169.266C167.946 167.466 168.246 156.864 167.196 150.438C166.146 144.012 158.694 139.638 155.256 139.488Z" fill="white" stroke="#263238" stroke-linecap="round" stroke-linejoin="round"/>
<path d="M157.644 131.118C157.644 131.118 155.106 138.888 153 141.6C150.894 144.312 150 144.738 149.268 151.014C148.536 157.29 151.806 171.486 152.868 171.186C153.93 170.886 164.226 154.452 167.664 151.758C171.102 149.064 174.69 146.232 174.69 146.232C174.69 146.232 166.32 143.688 163.482 140.106C161.337 137.244 159.387 134.241 157.644 131.118Z" fill="white"/>
<mask id="mask3_280_872" style="mask-type:luminance" maskUnits="userSpaceOnUse" x="149" y="131" width="26" height="41">
<path d="M157.644 131.118C157.644 131.118 155.106 138.888 153 141.6C150.894 144.312 150 144.738 149.268 151.014C148.536 157.29 151.806 171.486 152.868 171.186C153.93 170.886 164.226 154.452 167.664 151.758C171.102 149.064 174.69 146.232 174.69 146.232C174.69 146.232 166.32 143.688 163.482 140.106C161.337 137.244 159.387 134.241 157.644 131.118Z" fill="white"/>
</mask>
<g mask="url(#mask3_280_872)">
<path opacity="0.2" d="M169.146 150.6C172.056 148.314 174.684 146.238 174.684 146.238C174.684 146.238 166.314 143.694 163.476 140.112C161.334 137.255 159.386 134.259 157.644 131.142C156.774 133.772 155.758 136.352 154.602 138.87C155.868 142.416 159.396 148.2 169.146 150.6Z" fill="black"/>
<path d="M163.476 140.088C161.334 137.231 159.386 134.235 157.644 131.118C157.644 131.118 156.792 133.728 155.67 136.446C156.6 139.14 158.466 143.148 161.808 145.512C164.511 147.315 167.508 148.631 170.664 149.4L174.684 146.232C174.684 146.232 166.314 143.67 163.476 140.088Z" fill="#263238"/>
</g>
<path d="M157.644 131.118C157.644 131.118 155.106 138.888 153 141.6C150.894 144.312 150 144.738 149.268 151.014C148.536 157.29 151.806 171.486 152.868 171.186C153.93 170.886 164.226 154.452 167.664 151.758C171.102 149.064 174.69 146.232 174.69 146.232C174.69 146.232 166.32 143.688 163.482 140.106C161.337 137.244 159.387 134.241 157.644 131.118Z" stroke="#263238" stroke-linecap="round" stroke-linejoin="round"/>
<path d="M189.474 111.246C189.474 111.246 189.03 121.26 189.324 124.542C189.618 127.824 190.818 133.542 188.124 138.888C185.43 144.234 183.192 147.708 180.654 148.602C178.116 149.496 169.896 147.708 163.32 142.776C156.744 137.844 155.55 127.686 154.5 124.398C153.45 121.11 154.65 109.902 161.376 106.314C166.822 103.511 173.14 102.922 179.01 104.67C182.604 105.864 189.474 111.246 189.474 111.246Z" fill="white"/>
<mask id="mask4_280_872" style="mask-type:luminance" maskUnits="userSpaceOnUse" x="154" y="103" width="36" height="46">
<path d="M189.474 111.246C189.474 111.246 189.03 121.26 189.324 124.542C189.618 127.824 190.818 133.542 188.124 138.888C185.43 144.234 183.192 147.708 180.654 148.602C178.116 149.496 169.896 147.708 163.32 142.776C156.744 137.844 155.55 127.686 154.5 124.398C153.45 121.11 154.65 109.902 161.376 106.314C166.822 103.511 173.14 102.922 179.01 104.67C182.604 105.864 189.474 111.246 189.474 111.246Z" fill="white"/>
</mask>
<g mask="url(#mask4_280_872)">
<path opacity="0.2" d="M161.4 106.314C160.441 106.833 159.572 107.504 158.826 108.3L162.288 110.76C162.288 110.76 166.734 106.314 176.688 112.59C181.824 115.83 186.252 116.352 189.342 116.094C189.414 113.43 189.51 111.246 189.51 111.246C189.51 111.246 182.64 105.846 179.052 104.646C173.174 102.9 166.848 103.498 161.4 106.314Z" fill="black"/>
</g>
<path d="M189.474 111.246C189.474 111.246 189.03 121.26 189.324 124.542C189.618 127.824 190.818 133.542 188.124 138.888C185.43 144.234 183.192 147.708 180.654 148.602C178.116 149.496 169.896 147.708 163.32 142.776C156.744 137.844 155.55 127.686 154.5 124.398C153.45 121.11 154.65 109.902 161.376 106.314C166.822 103.511 173.14 102.922 179.01 104.67C182.604 105.864 189.474 111.246 189.474 111.246Z" stroke="#263238" stroke-linecap="round" stroke-linejoin="round"/>
<path d="M175.362 124.752C175.362 125.814 174.948 126.678 174.438 126.678C173.928 126.678 173.514 125.814 173.514 124.752C173.514 123.69 173.928 122.82 174.438 122.82C174.948 122.82 175.362 123.684 175.362 124.752Z" fill="#263238"/>
<path d="M186.276 125.754C186.276 126.822 185.862 127.686 185.352 127.686C184.842 127.686 184.428 126.822 184.428 125.754C184.428 124.686 184.842 123.828 185.352 123.828C185.862 123.828 186.276 124.692 186.276 125.754Z" fill="#263238"/>
<path d="M183.348 122.904C183.348 122.904 180.51 125.742 181.254 126.936C181.998 128.13 183.738 128.802 183.198 130.536C182.658 132.27 178.716 132.936 177.372 130.536" stroke="#263238" stroke-linecap="round" stroke-linejoin="round"/>
<path d="M168.852 132.168C169.967 133.52 171.356 134.619 172.929 135.392C174.502 136.165 176.221 136.594 177.972 136.65C177.972 136.65 171.84 140.682 169.152 140.25C166.464 139.818 168.852 132.168 168.852 132.168Z" fill="#263238" stroke="#263238" stroke-linecap="round" stroke-linejoin="round"/>
<path d="M170.286 119.052C170.286 119.052 172.89 115.452 178.086 117.69" stroke="#263238" stroke-linecap="round" stroke-linejoin="round"/>
<path d="M184.392 119.166C184.392 119.166 187.68 118.41 188.874 121.566" stroke="#263238" stroke-linecap="round" stroke-linejoin="round"/>
<path d="M155.556 128.43C155.556 128.43 156.9 122.604 160.188 120.51C163.476 118.416 166.614 118.866 164.67 116.028C162.726 113.19 161.67 110.346 165.87 109.002C170.07 107.658 178.272 109.902 183.054 111.696C187.836 113.49 197.1 114.096 199.494 107.358C200.97 103.206 196.65 99.8999 193.494 98.2019C189.996 96.3299 186.072 95.3999 182.124 96.0959C179.724 96.5099 177.438 97.4519 175.038 97.6919C170.976 98.1059 167.394 96.2219 163.344 97.1999C159.945 98.0114 156.902 99.9068 154.674 102.6C150.924 107.208 149.874 115.578 155.556 128.43Z" fill="#263238"/>
<mask id="mask5_280_872" style="mask-type:luminance" maskUnits="userSpaceOnUse" x="151" y="95" width="49" height="34">
<path d="M155.556 128.43C155.556 128.43 156.9 122.604 160.188 120.51C163.476 118.416 166.614 118.866 164.67 116.028C162.726 113.19 161.67 110.346 165.87 109.002C170.07 107.658 178.272 109.902 183.054 111.696C187.836 113.49 197.1 114.096 199.494 107.358C200.97 103.206 196.65 99.8999 193.494 98.2019C189.996 96.3299 186.072 95.3999 182.124 96.0959C179.724 96.5099 177.438 97.4519 175.038 97.6919C170.976 98.1059 167.394 96.2219 163.344 97.1999C159.945 98.0114 156.902 99.9068 154.674 102.6C150.924 107.208 149.874 115.578 155.556 128.43Z" fill="white"/>
</mask>
<g mask="url(#mask5_280_872)">
<path d="M190.158 95.814C190.158 95.814 197.922 100.014 192.486 106.992C187.05 113.97 181.932 109.17 169.038 106.686C156.144 104.202 148.542 110.568 148.542 110.568" stroke="#808080" stroke-linecap="round" stroke-linejoin="round"/>
<path d="M149.628 118.2C149.628 118.2 152.112 113.4 160.188 111.99C168.264 110.58 168.732 111.834 168.732 111.834" stroke="#808080" stroke-linecap="round" stroke-linejoin="round"/>
</g>
<path d="M155.556 128.43C155.556 128.43 156.9 122.604 160.188 120.51C163.476 118.416 166.614 118.866 164.67 116.028C162.726 113.19 161.67 110.346 165.87 109.002C170.07 107.658 178.272 109.902 183.054 111.696C187.836 113.49 197.1 114.096 199.494 107.358C200.97 103.206 196.65 99.8999 193.494 98.2019C189.996 96.3299 186.072 95.3999 182.124 96.0959C179.724 96.5099 177.438 97.4519 175.038 97.6919C170.976 98.1059 167.394 96.2219 163.344 97.1999C159.945 98.0114 156.902 99.9068 154.674 102.6C150.924 107.208 149.874 115.578 155.556 128.43Z" stroke="#263238" stroke-linecap="round" stroke-linejoin="round"/>
<path d="M158.934 126.306C158.934 126.306 155.058 117.432 151.644 122.052C148.23 126.672 154.416 132.516 159.06 131.382" fill="white"/>
<path d="M158.934 126.306C158.934 126.306 155.058 117.432 151.644 122.052C148.23 126.672 154.416 132.516 159.06 131.382" stroke="#263238" stroke-linecap="round" stroke-linejoin="round"/>
<path d="M201.132 125.292C201.132 125.292 198.594 124.992 198.132 127.092C197.67 129.192 197.232 132.492 198.132 132.492C199.032 132.492 200.67 132.048 201.27 130.692C201.87 129.336 202.47 125.16 202.47 125.16L201.132 125.292Z" fill="white" stroke="#263238" stroke-linecap="round" stroke-linejoin="round"/>
<path d="M205.164 124.542C205.164 124.542 201.564 123.942 201.132 125.292C200.7 126.642 200.088 131.292 200.532 131.418C200.976 131.544 203.67 130.374 203.67 130.374L205.164 124.542Z" fill="white" stroke="#263238" stroke-linecap="round" stroke-linejoin="round"/>
<path d="M209.946 124.842C209.946 124.842 205.746 122.154 204.72 123.498C203.694 124.842 203.67 130.374 203.67 130.374C204.042 130.456 204.428 130.444 204.793 130.339C205.159 130.235 205.493 130.04 205.764 129.774C206.514 128.88 207.408 127.686 207.408 127.686C207.408 127.686 210.408 128.43 210.846 128.286C211.284 128.142 212.34 128.286 212.046 126.792C211.752 125.298 209.946 124.842 209.946 124.842Z" fill="white" stroke="#263238" stroke-linecap="round" stroke-linejoin="round"/>
<path d="M215.628 127.536C213.742 126.232 212.204 124.488 211.146 122.454C209.652 119.316 208.902 119.454 208.146 120.81C207.39 122.166 208.29 123.498 208.89 124.692C209.49 125.886 212.028 128.73 212.028 128.73L215.628 127.536Z" fill="white" stroke="#263238" stroke-linecap="round" stroke-linejoin="round"/>
<path d="M188.748 148.44C188.748 148.44 186.582 166.938 186.918 167.94C187.254 168.942 190.914 170.106 191.748 169.44C192.582 168.774 192.084 167.442 191.748 166.608C191.412 165.774 194.58 150.276 194.58 150.276L188.748 148.44Z" fill="#4C72FF" stroke="#263238" stroke-linecap="round" stroke-linejoin="round"/>
<path d="M134.178 154.848L145.146 189.102C145.146 189.102 170.346 174.426 176.25 166.77C182.154 159.114 185.562 150.48 187.65 149.67C189.738 148.86 197.106 150.87 198.186 152.07C199.266 153.27 199.014 154.584 197.706 155.82C196.398 157.056 195.654 157.23 195.654 157.23C195.654 157.23 195.588 159.924 195 160.392C194.412 160.86 194.55 160.254 194.4 160.854C194.298 161.495 194.063 162.108 193.71 162.654C193.278 163.254 193.11 163.566 192.696 163.728C191.836 164.094 190.942 164.371 190.026 164.556C188.413 164.972 186.773 165.272 185.118 165.456C184.08 165.636 177.318 178.998 170.97 186.96C164.622 194.922 144.57 213.18 141.42 213.276C138.27 213.372 119.766 182.808 115.8 175.302" fill="white"/>
<mask id="mask6_280_872" style="mask-type:luminance" maskUnits="userSpaceOnUse" x="115" y="149" width="84" height="65">
<path d="M134.178 154.848L145.146 189.102C145.146 189.102 170.346 174.426 176.25 166.77C182.154 159.114 185.562 150.48 187.65 149.67C189.738 148.86 197.106 150.87 198.186 152.07C199.266 153.27 199.014 154.584 197.706 155.82C196.398 157.056 195.654 157.23 195.654 157.23C195.654 157.23 195.588 159.924 195 160.392C194.412 160.86 194.55 160.254 194.4 160.854C194.298 161.495 194.063 162.108 193.71 162.654C193.278 163.254 193.11 163.566 192.696 163.728C191.836 164.094 190.942 164.371 190.026 164.556C188.413 164.972 186.773 165.272 185.118 165.456C184.08 165.636 177.318 178.998 170.97 186.96C164.622 194.922 144.57 213.18 141.42 213.276C138.27 213.372 119.766 182.808 115.8 175.302" fill="white"/>
</mask>
<g mask="url(#mask6_280_872)">
<path opacity="0.2" d="M193.71 162.642C194.063 162.097 194.298 161.483 194.4 160.842C194.532 160.242 194.4 160.842 195 160.38C195.6 159.918 195.654 157.218 195.654 157.218C195.654 157.218 196.398 157.044 197.706 155.808C199.014 154.572 199.272 153.222 198.186 152.058C197.1 150.894 189.72 148.878 187.65 149.658C187.11 149.868 186.45 150.618 185.73 151.746C186.828 153.546 188.13 154.644 186.93 157.788C185.13 162.588 180.93 168.588 177.33 173.688C173.73 178.788 143.73 206.988 140.13 206.388C137.19 205.896 128.652 195.588 125.616 191.85C132.12 202.284 139.56 213.306 141.45 213.252C144.588 213.156 164.664 194.904 171 186.936C177.336 178.968 184.08 165.6 185.118 165.444C186.773 165.26 188.413 164.96 190.026 164.544C190.942 164.359 191.836 164.082 192.696 163.716C193.14 163.554 193.278 163.254 193.71 162.642Z" fill="black"/>
</g>
<path d="M134.178 154.848L145.146 189.102C145.146 189.102 170.346 174.426 176.25 166.77C182.154 159.114 185.562 150.48 187.65 149.67C189.738 148.86 197.106 150.87 198.186 152.07C199.266 153.27 199.014 154.584 197.706 155.82C196.398 157.056 195.654 157.23 195.654 157.23C195.654 157.23 195.588 159.924 195 160.392C194.412 160.86 194.55 160.254 194.4 160.854C194.298 161.495 194.063 162.108 193.71 162.654C193.278 163.254 193.11 163.566 192.696 163.728C191.836 164.094 190.942 164.371 190.026 164.556C188.413 164.972 186.773 165.272 185.118 165.456C184.08 165.636 177.318 178.998 170.97 186.96C164.622 194.922 144.57 213.18 141.42 213.276C138.27 213.372 119.766 182.808 115.8 175.302" stroke="#263238" stroke-linecap="round" stroke-linejoin="round"/>
<path d="M145.146 189.102C145.146 189.102 142.272 189.222 139.836 196.902" stroke="#263238" stroke-linecap="round" stroke-linejoin="round"/>
<path d="M190.026 164.544C190.942 164.359 191.837 164.082 192.696 163.716C193.14 163.554 193.296 163.254 193.71 162.642C194.063 162.097 194.298 161.483 194.4 160.842C194.532 160.242 194.922 160.038 195.504 159.57C196.086 159.102 195.636 157.218 195.636 157.218C195.636 157.218 196.38 157.044 197.688 155.808C198.996 154.572 199.254 153.222 198.168 152.058C197.082 150.894 189.702 148.878 187.632 149.658C185.562 150.438 182.43 158.4 177 165.798L182.052 169.938C183.636 167.298 184.764 165.51 185.136 165.444C186.785 165.26 188.42 164.959 190.026 164.544Z" fill="white"/>
<mask id="mask7_280_872" style="mask-type:luminance" maskUnits="userSpaceOnUse" x="177" y="149" width="22" height="21">
<path d="M190.026 164.544C190.942 164.359 191.837 164.082 192.696 163.716C193.14 163.554 193.296 163.254 193.71 162.642C194.063 162.097 194.298 161.483 194.4 160.842C194.532 160.242 194.922 160.038 195.504 159.57C196.086 159.102 195.636 157.218 195.636 157.218C195.636 157.218 196.38 157.044 197.688 155.808C198.996 154.572 199.254 153.222 198.168 152.058C197.082 150.894 189.702 148.878 187.632 149.658C185.562 150.438 182.43 158.4 177 165.798L182.052 169.938C183.636 167.298 184.764 165.51 185.136 165.444C186.785 165.26 188.42 164.959 190.026 164.544Z" fill="white"/>
</mask>
<g mask="url(#mask7_280_872)">
<path opacity="0.2" d="M193.71 162.642C194.063 162.097 194.298 161.483 194.4 160.842C194.532 160.242 194.4 160.842 195 160.38C195.6 159.918 195.654 157.218 195.654 157.218C195.654 157.218 196.398 157.044 197.706 155.808C199.014 154.572 199.272 153.222 198.186 152.058C197.1 150.894 189.72 148.878 187.65 149.658C187.11 149.868 186.45 150.618 185.73 151.746C186.828 153.546 188.13 154.644 186.93 157.788C185.13 162.588 180.93 168.588 177.33 173.688C173.73 178.788 143.73 206.988 140.13 206.388C137.19 205.896 128.652 195.588 125.616 191.85C132.12 202.284 139.56 213.306 141.45 213.252C144.588 213.156 164.664 194.904 171 186.936C177.336 178.968 184.08 165.6 185.118 165.444C186.773 165.26 188.414 164.96 190.026 164.544C190.942 164.359 191.837 164.082 192.696 163.716C193.14 163.554 193.278 163.254 193.71 162.642Z" fill="black"/>
</g>
<path d="M190.026 164.544C190.942 164.359 191.837 164.082 192.696 163.716C193.14 163.554 193.296 163.254 193.71 162.642C194.063 162.097 194.298 161.483 194.4 160.842C194.532 160.242 194.922 160.038 195.504 159.57C196.086 159.102 195.636 157.218 195.636 157.218C195.636 157.218 196.38 157.044 197.688 155.808C198.996 154.572 199.254 153.222 198.168 152.058C197.082 150.894 189.702 148.878 187.632 149.658C185.562 150.438 182.43 158.4 177 165.798L182.052 169.938C183.636 167.298 184.764 165.51 185.136 165.444C186.785 165.26 188.42 164.959 190.026 164.544Z" stroke="#263238" stroke-linecap="round" stroke-linejoin="round"/>
<path d="M183.498 136.35C181.848 136.35 180.498 138.75 180.498 141.654C180.498 144.558 181.836 146.958 183.498 146.958L220.098 158.016V124.842L183.498 136.35Z" fill="#4C72FF" stroke="#263238" stroke-linecap="round" stroke-linejoin="round"/>
<path d="M204.09 131.934L189.81 136.044" stroke="#263238" stroke-linecap="round" stroke-linejoin="round"/>
<path d="M208.866 130.56L205.878 131.424" stroke="#263238" stroke-linecap="round" stroke-linejoin="round"/>
<path d="M188.184 134.874L183.498 136.35C181.848 136.35 180.498 138.75 180.498 141.654C180.498 144.558 181.836 146.958 183.498 146.958L187.728 148.236C186.734 146.133 186.256 143.824 186.336 141.499C186.415 139.175 187.049 136.903 188.184 134.874Z" fill="#263238" stroke="#263238" stroke-linecap="round" stroke-linejoin="round"/>
<path d="M223.248 163.932C230.18 163.932 235.8 153.958 235.8 141.654C235.8 129.35 230.18 119.376 223.248 119.376C216.316 119.376 210.696 129.35 210.696 141.654C210.696 153.958 216.316 163.932 223.248 163.932Z" fill="#D6D6D6" stroke="#263238" stroke-linecap="round" stroke-linejoin="round"/>
<path d="M223.248 136.71L211.29 133.512L210.246 142.032L211.59 150.696L223.248 146.598L223.698 136.95" fill="#D6D6D6"/>
<path d="M223.248 136.71L211.29 133.512L210.246 142.032L211.59 150.696L223.248 146.598L223.698 136.95" stroke="#263238" stroke-linecap="round" stroke-linejoin="round"/>
<path d="M223.248 117.372C215.694 117.372 209.568 128.244 209.568 141.654C209.568 155.064 215.694 165.936 223.248 165.936C230.802 165.936 236.928 155.064 236.928 141.654C236.928 128.244 230.802 117.372 223.248 117.372ZM223.584 162.492C217.29 162.492 212.184 153.162 212.184 141.654C212.184 130.146 217.29 120.822 223.584 120.822C229.878 120.822 234.984 130.146 234.984 141.654C234.984 153.162 229.884 162.492 223.584 162.492Z" fill="#263238" stroke="#263238" stroke-linecap="round" stroke-linejoin="round"/>
<path d="M223.248 146.598C224.786 146.598 226.032 144.384 226.032 141.654C226.032 138.923 224.786 136.71 223.248 136.71C221.711 136.71 220.464 138.923 220.464 141.654C220.464 144.384 221.711 146.598 223.248 146.598Z" fill="#4C72FF" stroke="#263238" stroke-linecap="round" stroke-linejoin="round"/>
<path d="M258.528 116.466L261.306 115.602" stroke="#263238" stroke-linecap="round" stroke-linejoin="round"/>
<path d="M238.638 122.622L255.102 117.522" stroke="#263238" stroke-linecap="round" stroke-linejoin="round"/>
<path d="M240.798 140.43L255.906 140.97" stroke="#263238" stroke-linecap="round" stroke-linejoin="round"/>
<path d="M253.314 162.624L256.446 163.632" stroke="#263238" stroke-linecap="round" stroke-linejoin="round"/>
<path d="M239.718 158.238L250.83 161.826" stroke="#263238" stroke-linecap="round" stroke-linejoin="round"/>
<path d="M240.258 130.716L248.352 129.636" stroke="#263238" stroke-linecap="round" stroke-linejoin="round"/>
<path d="M236.478 164.172L242.418 169.032" stroke="#263238" stroke-linecap="round" stroke-linejoin="round"/>
</g>
</svg>
