<svg width="200" height="150" viewBox="0 0 200 150" fill="none" xmlns="http://www.w3.org/2000/svg">
<path d="M191.073 63.706C189.872 59.7902 188.284 56.0006 186.33 52.3918L189.285 42.8512L170.202 24.0247L160.521 26.9501C156.876 25.0011 153.036 23.4298 149.062 22.2613L144.32 13.4546H117.301L112.548 22.2613C108.576 23.4335 104.737 25.0046 101.09 26.9501L91.4191 24.0247L72.3149 42.8716L75.2699 52.4122C73.3079 56.0169 71.7191 59.8075 70.5274 63.7264L61.5901 68.405V95.0597L70.5171 99.7485C71.7069 103.665 73.2959 107.452 75.2596 111.052L72.3046 120.583L91.4088 139.43L101.08 136.515C104.73 138.454 108.574 140.018 112.548 141.183L117.301 150H144.32L149.062 141.193C153.032 140.016 156.872 138.445 160.521 136.504L170.202 139.42L189.306 120.573L186.351 111.032C188.299 107.427 189.881 103.64 191.073 99.7281L200 95.0393V68.3846L191.073 63.706ZM130.805 130.032C121.117 130.032 111.646 127.198 103.591 121.888C95.5353 116.578 89.2568 109.03 85.5492 100.2C81.8417 91.3698 80.8716 81.6533 82.7617 72.2791C84.6518 62.905 89.3172 54.2943 96.1678 47.536C103.018 40.7776 111.747 36.1751 121.249 34.3104C130.751 32.4458 140.6 33.4028 149.551 37.0604C158.502 40.718 166.152 46.9119 171.535 54.8589C176.917 62.8059 179.79 72.1491 179.79 81.7069C179.79 88.053 178.523 94.337 176.061 100.2C173.6 106.063 169.992 111.39 165.443 115.878C160.894 120.365 155.494 123.925 149.551 126.353C143.608 128.782 137.238 130.032 130.805 130.032Z" fill="#0C5E83"/>
<path d="M130.805 40.1604C122.474 40.1624 114.331 42.6014 107.405 47.1689C100.479 51.7365 95.0817 58.2275 91.895 65.8212C88.7083 73.4149 87.8756 81.7702 89.5021 89.8308C91.1286 97.8914 95.1414 105.295 101.033 111.106C106.925 116.917 114.43 120.874 122.601 122.476C130.773 124.079 139.242 123.255 146.938 120.11C154.635 116.964 161.213 111.638 165.842 104.804C170.47 97.9701 172.94 89.936 172.94 81.7172C172.926 70.6981 168.482 60.1342 160.583 52.3434C152.684 44.5526 141.975 40.1712 130.805 40.1604ZM130.805 117.739C123.583 117.741 116.523 115.63 110.517 111.673C104.51 107.716 99.8288 102.091 97.0636 95.5093C94.2983 88.9273 93.5737 81.6842 94.9815 74.6959C96.3892 67.7077 99.866 61.2882 104.972 56.2494C110.078 51.2106 116.584 47.7788 123.668 46.3881C130.751 44.9974 138.093 45.7101 144.766 48.4362C151.439 51.1624 157.142 55.7794 161.155 61.7034C165.167 67.6274 167.309 74.5923 167.309 81.7172C167.298 91.2658 163.449 100.42 156.606 107.173C149.763 113.926 140.484 117.726 130.805 117.739Z" fill="#0EA5E9"/>
<path opacity="0.2" d="M130.805 40.1604C122.474 40.1624 114.331 42.6014 107.405 47.1689C100.479 51.7365 95.0817 58.2275 91.895 65.8212C88.7083 73.4149 87.8756 81.7702 89.5021 89.8308C91.1286 97.8914 95.1414 105.295 101.033 111.106C106.925 116.917 114.43 120.874 122.601 122.476C130.773 124.079 139.242 123.255 146.938 120.11C154.635 116.964 161.213 111.638 165.842 104.804C170.47 97.9701 172.94 89.936 172.94 81.7172C172.926 70.6981 168.482 60.1342 160.583 52.3434C152.684 44.5526 141.975 40.1712 130.805 40.1604ZM130.805 117.739C123.583 117.741 116.523 115.63 110.517 111.673C104.51 107.716 99.8288 102.091 97.0636 95.5093C94.2983 88.9273 93.5737 81.6842 94.9815 74.6959C96.3892 67.7077 99.866 61.2882 104.972 56.2494C110.078 51.2106 116.584 47.7788 123.668 46.3881C130.751 44.9974 138.093 45.7101 144.766 48.4362C151.439 51.1624 157.142 55.7794 161.155 61.7034C165.167 67.6274 167.309 74.5923 167.309 81.7172C167.298 91.2658 163.449 100.42 156.606 107.173C149.763 113.926 140.484 117.726 130.805 117.739Z" fill="black"/>
<path d="M90.6132 35.1352C89.773 32.3963 88.6585 29.7466 87.2862 27.2255L89.3527 20.5491L75.9932 7.35934L69.2256 9.39794C66.67 8.04412 63.9842 6.94465 61.2078 6.11579L57.8809 0H38.973L35.6563 6.11579C32.8793 6.94272 30.1933 8.04227 27.6386 9.39794L20.871 7.35934L7.50116 20.5491L9.56759 27.2255C8.2031 29.749 7.09225 32.3982 6.25096 35.1352L0 38.4174V57.0706L6.25096 60.3425C7.09018 63.0803 8.20111 65.7297 9.56759 68.2523L7.50116 74.9287L20.871 88.1184L27.6386 86.0798C30.1956 87.4279 32.8812 88.5238 35.6563 89.3518L38.973 95.4676H57.8809L61.2078 89.3518C63.9822 88.5218 66.6676 87.4259 69.2256 86.0798L75.9932 88.1184L89.363 74.9287L87.2966 68.2523C88.6708 65.732 89.7853 63.0822 90.6235 60.3425L96.8745 57.0706V38.4174L90.6132 35.1352ZM48.4269 74.2356C43.1138 74.2356 37.92 72.6812 33.5023 69.7692C29.0846 66.8571 25.6414 62.7181 23.6081 57.8756C21.5749 53.033 21.0429 47.7044 22.0794 42.5635C23.116 37.4227 25.6745 32.7005 29.4314 28.9942C33.1884 25.2878 37.975 22.7638 43.1861 21.7412C48.3971 20.7186 53.7985 21.2435 58.7072 23.2493C63.6159 25.2552 67.8114 28.652 70.7632 33.0102C73.715 37.3684 75.2906 42.4922 75.2906 47.7338C75.2906 54.7625 72.4603 61.5033 67.4224 66.4734C62.3845 71.4434 55.5516 74.2356 48.4269 74.2356Z" fill="#0EA5E9"/>
<path opacity="0.2" d="M90.6132 35.1352C89.773 32.3963 88.6585 29.7466 87.2862 27.2255L89.3527 20.5491L75.9932 7.35934L69.2256 9.39794C66.67 8.04412 63.9842 6.94465 61.2078 6.1158L57.8809 0H38.973L35.6563 6.1158C32.8793 6.94272 30.1933 8.04227 27.6386 9.39794L20.871 7.35934L7.50116 20.5491L9.56759 27.2255C8.2031 29.749 7.09225 32.3982 6.25096 35.1352L0 38.4174V57.0706L6.25096 60.3425C7.09018 63.0803 8.20111 65.7297 9.56759 68.2523L7.50116 74.9287L20.871 88.1184L27.6386 86.0798C30.1956 87.4279 32.8812 88.5238 35.6563 89.3518L38.973 95.4676H57.8809L61.2078 89.3518C63.9822 88.5218 66.6676 87.4259 69.2256 86.0798L75.9932 88.1184L89.363 74.9287L87.2966 68.2523C88.6707 65.732 89.7853 63.0822 90.6235 60.3425L96.8745 57.0706V38.4174L90.6132 35.1352ZM48.4269 74.2355C43.1138 74.2355 37.92 72.6812 33.5023 69.7692C29.0846 66.8571 25.6414 62.7181 23.6081 57.8756C21.5749 53.033 21.0429 47.7044 22.0794 42.5635C23.116 37.4227 25.6745 32.7005 29.4314 28.9942C33.1884 25.2878 37.975 22.7638 43.1861 21.7412C48.3971 20.7186 53.7985 21.2435 58.7072 23.2493C63.6159 25.2552 67.8114 28.652 70.7632 33.0102C73.715 37.3684 75.2906 42.4922 75.2906 47.7338C75.2906 54.7625 72.4603 61.5033 67.4224 66.4734C62.3845 71.4434 55.5516 74.2355 48.4269 74.2355Z" fill="white"/>
<path d="M48.4269 38.9575C46.6654 38.9575 44.9434 39.4728 43.4788 40.4383C42.0142 41.4037 40.8726 42.776 40.1985 44.3815C39.5244 45.987 39.348 47.7536 39.6917 49.458C40.0354 51.1624 40.8836 52.728 42.1292 53.9568C43.3747 55.1856 44.9617 56.0224 46.6894 56.3614C48.417 56.7004 50.2078 56.5264 51.8352 55.8614C53.4626 55.1964 54.8536 54.0702 55.8323 52.6253C56.8109 51.1804 57.3332 49.4817 57.3332 47.7439C57.3332 45.4136 56.3949 43.1787 54.7246 41.531C53.0544 39.8832 50.789 38.9575 48.4269 38.9575Z" fill="#0EA5E9"/>
</svg>
