<svg width="201" height="150" viewBox="0 0 201 150" fill="none" xmlns="http://www.w3.org/2000/svg">
<path d="M186.707 62.2656H95.9848C92.458 62.2656 89.0751 63.6266 86.5772 66.0503C84.0793 68.474 82.6702 71.7628 82.6587 75.1961V122.993C82.6702 126.421 84.0748 129.705 86.5656 132.128C89.0564 134.551 92.431 135.915 95.9521 135.924H105.138L101.596 150C106.783 149.539 111.818 148.056 116.397 145.639C120.975 143.223 125 139.925 128.227 135.945H186.707C190.228 135.937 193.602 134.572 196.093 132.149C198.584 129.726 199.989 126.442 200 123.015V75.1961C199.989 71.7683 198.584 68.4843 196.093 66.0615C193.602 63.6387 190.228 62.274 186.707 62.2656Z" fill="#0EA5E9"/>
<path opacity="0.3" d="M187.048 62H96.3261C92.7993 62 89.4164 63.3609 86.9185 65.7847C84.4206 68.2084 83.0115 71.4972 83 74.9305V122.728C83.0115 126.155 84.4161 129.439 86.9069 131.862C89.3977 134.285 92.7723 135.65 96.2934 135.658H105.479L101.938 149.734C107.124 149.274 112.16 147.79 116.738 145.374C121.316 142.957 125.341 139.659 128.568 135.679H187.048C190.569 135.671 193.944 134.306 196.434 131.884C198.925 129.461 200.33 126.177 200.341 122.749V74.9305C200.33 71.5027 198.925 68.2187 196.434 65.7959C193.944 63.3731 190.569 62.0084 187.048 62Z" fill="black"/>
<path d="M176.017 110.021C182.216 110.021 187.241 105.129 187.241 99.0949C187.241 93.0608 182.216 88.1692 176.017 88.1692C169.819 88.1692 164.794 93.0608 164.794 99.0949C164.794 105.129 169.819 110.021 176.017 110.021Z" fill="#0EA5E9"/>
<path d="M141.346 110.021C147.544 110.021 152.569 105.129 152.569 99.0949C152.569 93.0608 147.544 88.1692 141.346 88.1692C135.147 88.1692 130.123 93.0608 130.123 99.0949C130.123 105.129 135.147 110.021 141.346 110.021Z" fill="#0EA5E9"/>
<path d="M106.685 110.021C112.883 110.021 117.908 105.129 117.908 99.0949C117.908 93.0608 112.883 88.1692 106.685 88.1692C100.486 88.1692 95.4617 93.0608 95.4617 99.0949C95.4617 105.129 100.486 110.021 106.685 110.021Z" fill="#0EA5E9"/>
<path d="M176.017 110.021C182.216 110.021 187.241 105.129 187.241 99.0949C187.241 93.0608 182.216 88.1692 176.017 88.1692C169.819 88.1692 164.794 93.0608 164.794 99.0949C164.794 105.129 169.819 110.021 176.017 110.021Z" fill="#FAFAFA"/>
<path d="M141.346 110.021C147.544 110.021 152.569 105.129 152.569 99.0949C152.569 93.0608 147.544 88.1692 141.346 88.1692C135.147 88.1692 130.123 93.0608 130.123 99.0949C130.123 105.129 135.147 110.021 141.346 110.021Z" fill="#FAFAFA"/>
<path d="M106.685 110.021C112.883 110.021 117.908 105.129 117.908 99.0949C117.908 93.0608 112.883 88.1692 106.685 88.1692C100.486 88.1692 95.4617 93.0608 95.4617 99.0949C95.4617 105.129 100.486 110.021 106.685 110.021Z" fill="#FAFAFA"/>
<path d="M13.2825 0H104.015C107.537 0.0111869 110.912 1.37822 113.402 3.80272C115.893 6.22723 117.297 9.51235 117.309 12.9411V60.7277C117.286 64.1491 115.876 67.4233 113.387 69.8387C110.898 72.2541 107.53 73.6153 104.015 73.6264H94.8298L98.4037 87.6706C93.2166 87.2116 88.1797 85.7298 83.5996 83.3153C79.0196 80.9009 74.9921 77.6043 71.7625 73.6264H13.2825C9.76141 73.6152 6.38799 72.2478 3.89922 69.823C1.41045 67.3982 0.0086184 64.113 0 60.6853V12.9517C0.00574239 9.5221 1.40629 6.23423 3.89538 3.80713C6.38446 1.38004 9.75952 0.0112125 13.2825 0Z" fill="#0EA5E9"/>
<path opacity="0.1" d="M13.2825 0H104.015C107.537 0.0111869 110.912 1.37822 113.402 3.80272C115.893 6.22723 117.297 9.51235 117.309 12.9411V60.7277C117.286 64.1491 115.876 67.4233 113.387 69.8387C110.898 72.2541 107.53 73.6153 104.015 73.6264H94.8298L98.4037 87.6706C93.2166 87.2116 88.1797 85.7298 83.5996 83.3153C79.0196 80.9009 74.9921 77.6043 71.7625 73.6264H13.2825C9.76141 73.6152 6.38799 72.2478 3.89922 69.823C1.41045 67.3982 0.0086184 64.113 0 60.6853V12.9517C0.00574239 9.5221 1.40629 6.23423 3.89538 3.80713C6.38446 1.38004 9.75952 0.0112125 13.2825 0Z" fill="#FAFAFA"/>
<path d="M101.237 16.6431H16.061V24.4926H101.237V16.6431Z" fill="#0EA5E9"/>
<path d="M81.7543 32.9043H16.061V40.7538H81.7543V32.9043Z" fill="#0EA5E9"/>
<path d="M90.3296 49.1763H16.061V57.0258H90.3296V49.1763Z" fill="#0EA5E9"/>
<path d="M101.237 16.6431H16.061V24.4926H101.237V16.6431Z" fill="white"/>
<path d="M81.7543 32.9043H16.061V40.7538H81.7543V32.9043Z" fill="white"/>
<path d="M90.3296 49.1763H16.061V57.0258H90.3296V49.1763Z" fill="white"/>
</svg>
