<svg width="200" height="150" viewBox="0 0 200 150" fill="none" xmlns="http://www.w3.org/2000/svg">
<path d="M186.609 82.9825C183.673 82.9796 180.819 83.9474 178.484 85.7367L146.192 61.3803C147.365 58.3168 147.396 54.93 146.28 51.8449C145.165 48.7598 142.977 46.1846 140.121 44.5942C137.264 43.0038 133.932 42.5057 130.74 43.1917C127.547 43.8777 124.709 45.7015 122.748 48.3267C120.788 50.9519 119.838 54.2013 120.074 57.4755C120.31 60.7497 121.715 63.8277 124.031 66.1417C126.347 68.4556 129.417 69.8494 132.675 70.0659C135.932 70.2824 139.158 69.3069 141.757 67.3195L174.031 91.6758C172.839 94.7805 172.839 98.2201 174.031 101.325L141.757 125.681C139.429 123.878 136.571 122.902 133.632 122.908C130.968 122.908 128.363 123.703 126.148 125.191C123.932 126.679 122.205 128.795 121.186 131.27C120.166 133.745 119.899 136.469 120.419 139.097C120.939 141.724 122.222 144.138 124.106 146.032C125.99 147.927 128.391 149.217 131.004 149.74C133.617 150.262 136.326 149.994 138.788 148.969C141.25 147.943 143.354 146.207 144.834 143.98C146.315 141.752 147.105 139.133 147.105 136.454C147.101 134.8 146.791 133.161 146.192 131.62L178.484 107.264C180.188 108.546 182.171 109.404 184.269 109.766C186.366 110.129 188.52 109.985 190.552 109.348C192.584 108.711 194.437 107.598 195.958 106.101C197.479 104.604 198.625 102.765 199.302 100.736C199.979 98.7068 200.167 96.5451 199.851 94.4286C199.536 92.312 198.725 90.301 197.486 88.5607C196.247 86.8204 194.615 85.4006 192.724 84.4179C190.833 83.4351 188.737 82.9175 186.609 82.9076V82.9825Z" fill="#0C5E83"/>
<path d="M80.0281 0.0167182C111.333 0.503845 137.476 12.4384 158.048 36.3264C158.708 37.0505 159.215 37.9012 159.539 38.8274C159.864 39.7536 159.999 40.7361 159.936 41.7161C159.873 42.696 159.615 43.653 159.175 44.5298C158.735 45.4066 158.124 46.185 157.377 46.8183C156.652 47.4416 155.809 47.9121 154.899 48.202C153.989 48.4919 153.031 48.5954 152.08 48.5064C151.13 48.4173 150.207 48.1374 149.366 47.6833C148.525 47.2293 147.783 46.6102 147.185 45.8628C139.851 37.1366 130.927 29.8998 120.892 24.5417C105.46 16.299 87.9207 12.9099 70.5494 14.8142C53.178 16.7185 36.7768 23.8283 23.474 35.221C19.7597 38.5498 16.2325 42.0838 12.9086 45.8066C11.6442 47.3143 9.83973 48.2602 7.88633 48.4391C5.93293 48.618 3.98817 48.0154 2.47369 46.7621C1.7407 46.1138 1.14479 45.324 0.721297 44.4396C0.297805 43.5553 0.0553519 42.5943 0.00842212 41.6139C-0.0385076 40.6335 0.111047 39.6536 0.448112 38.7324C0.785176 37.8112 1.30285 36.9675 1.97053 36.2514C18.4442 16.5802 41.6833 3.87036 67.0588 0.653737C69.1085 0.372703 71.1769 0.147876 73.2266 0.0541974C75.2764 -0.0394807 77.7547 0.0167182 80.0281 0.0167182Z" fill="#0EA5E9"/>
<path d="M82.6182 29.2068C102.407 29.7126 121.004 38.2186 135.65 55.2306C136.33 55.94 136.856 56.784 137.194 57.7087C137.532 58.6335 137.674 59.6189 137.613 60.6022C137.552 61.5855 137.288 62.5452 136.837 63.4202C136.387 64.2953 135.761 65.0666 134.998 65.685C134.267 66.3185 133.415 66.7967 132.495 67.0906C131.575 67.3846 130.605 67.4883 129.644 67.3955C128.683 67.3027 127.751 67.0154 126.903 66.5508C126.056 66.0862 125.31 65.4539 124.712 64.6921C117.405 55.7874 107.569 49.3362 96.519 46.2C73.5061 39.961 53.661 45.6567 36.8904 62.781C36.2755 63.4181 35.6979 64.0925 35.0271 64.767C34.4221 65.5469 33.6657 66.1948 32.8038 66.6713C31.9419 67.1478 30.9926 67.4429 30.0136 67.5388C29.0346 67.6346 28.0465 67.5291 27.1093 67.2286C26.1722 66.9282 25.3057 66.4391 24.5625 65.7912C23.8194 65.1433 23.2152 64.3501 22.7867 63.4599C22.3582 62.5697 22.1144 61.6011 22.0701 60.6132C22.0258 59.6252 22.1819 58.6385 22.529 57.7131C22.8761 56.7877 23.4068 55.9431 24.089 55.2306C30.5272 47.5577 38.4689 41.3011 47.4187 36.8509C57.835 31.7361 68.7173 29.2443 82.6182 29.2068Z" fill="#0EA5E9"/>
<path d="M115.172 78.9875C115.174 80.4699 114.726 81.9177 113.887 83.1367C113.048 84.3557 111.858 85.2876 110.477 85.8074C109.096 86.3273 107.59 86.4103 106.161 86.0452C104.732 85.6802 103.448 84.8846 102.482 83.7651C99.47 80.2035 95.6912 77.3779 91.432 75.5027C85.6659 73.0099 79.254 72.4528 73.1481 73.9142C67.0421 75.3756 61.5676 78.7776 57.5369 83.6152C56.6418 84.7547 55.4191 85.5891 54.0353 86.0048C52.6516 86.4205 51.174 86.3974 49.8038 85.9384C48.6591 85.5822 47.6204 84.9454 46.7811 84.0855C45.9419 83.2255 45.3284 82.1693 44.9958 81.0118C44.6631 79.8543 44.6219 78.6319 44.8757 77.4544C45.1294 76.2769 45.6704 75.1813 46.4497 74.2661C50.5294 69.3188 55.6461 65.3392 61.4336 62.6118C67.2212 59.8844 73.5366 58.4766 79.9283 58.4891C86.32 58.5016 92.6301 59.9342 98.407 62.6843C104.184 65.4344 109.285 69.4341 113.346 74.3973C114.233 75.7798 114.952 77.2643 115.488 78.8189L115.172 78.9875Z" fill="#0EA5E9"/>
<path d="M80.0094 117.208C77.1292 117.219 74.3108 116.37 71.9116 114.767C69.5125 113.165 67.6409 110.882 66.5345 108.208C65.4281 105.535 65.1366 102.591 65.6972 99.7503C66.2577 96.9098 67.645 94.3007 69.6829 92.2543C71.7209 90.2079 74.3175 88.8165 77.1433 88.2565C79.9692 87.6966 82.8967 87.9934 85.5544 89.1093C88.2122 90.2252 90.4803 92.1099 92.0708 94.5242C93.6614 96.9385 94.5027 99.7735 94.488 102.669C94.4831 106.527 92.9554 110.225 90.2407 112.951C87.5259 115.677 83.8461 117.208 80.0094 117.208Z" fill="#0EA5E9"/>
</svg>
